# xmcd
#
# Track frame offsets: 
#        150
#        14456
#        30930
#        51212
#        71738
#        87679
#        103725
#        119063
#        133970
#        149188
#
# Disc length: 2213 seconds
#
# Revision: 0
# Processed by: cddbd v1.5.2PL0 Copyright (c) Steve Scherf et al.
# Submitted via: ExactAudioCopy v1.0b6
#
DISCID=9f08a30a
DTITLE=Buddy Brown - Keepin' It Country
DYEAR=2014
DGENRE=Country
TTITLE0=If This Country Still Had Balls
TTITLE1=The Whiskey Did
TTITLE2=Fire and Gas
TTITLE3=We Played Football
TTITLE4=The Judge
TTITLE5=What Any Boy'd Do
TTITLE6=Take You Huntin'
TTITLE7=Hillbilly Guys, Hillbilly Girls
TTITLE8=When's it Gonna Hit You
TTITLE9=Shotgun Wedding
EXTD=
EXTT0=
EXTT1=
EXTT2=
EXTT3=
EXTT4=
EXTT5=
EXTT6=
EXTT7=
EXTT8=
EXTT9=
PLAYORDER=
